Coordinates
version=1
nRows=16
nColumns=42
inDegrees=yes

Units are S.I. units (second, meters, Newtons, ...)
If the header above contains a line with 'inDegrees', this indicates whether rotational values are in degrees (yes) or radians (no).

endheader
time	pelvis_tilt	pelvis_list	pelvis_rotation	pelvis_tx	pelvis_ty	pelvis_tz	hip_flexion_r	hip_adduction_r	hip_rotation_r	knee_angle_r	knee_angle_r_beta	ankle_angle_r	subtalar_angle_r	mtp_angle_r	hip_flexion_l	hip_adduction_l	hip_rotation_l	knee_angle_l	knee_angle_l_beta	ankle_angle_l	subtalar_angle_l	mtp_angle_l	lumbar_extension	lumbar_bending	lumbar_rotation	sh_tx_r	sh_ty_r	sh_tz_r	sh_plane_elev_r	sh_elev_r	sh_axial_rot_r	elbow_flex_r	pro_sup_r	sh_tx_l	sh_ty_l	sh_tz_l	sh_plane_elev_l	sh_elev_l	sh_axial_rot_l	elbow_flex_l	pro_sup_l
      4.67796610	     -5.44659052	     -0.81133774	     -0.22656466	      0.28331295	      0.93285399	     -0.04913755	      3.47456904	     -7.16254869	     -6.71388808	      0.83565501	      0.01458493	      1.39967301	      0.16119279	     -7.49999987	      2.32216482	     -5.97838254	     -7.62452998	      0.59544273	      0.01039244	      7.10015940	     -1.98797739	     -7.49999987	      5.55593697	      7.22413308	     -2.43487080	      0.00546014	     -0.01302470	     -0.00687071	     -9.09949660	      6.30620080	      1.28759421	     29.96587840	     97.38036149	     -0.00872118	      0.02603143	     -0.00628098	      0.29651862	     74.10160389	    -45.70351198	    108.65870563	     87.12590226
      4.69491530	     -5.44915977	     -0.83219903	     -0.20011473	      0.28341808	      0.93016650	     -0.04907963	      3.46197123	     -7.15201615	     -6.51381133	      0.87919183	      0.01534479	      1.27475200	     -0.14375263	     -7.49999987	      2.32970700	     -6.00635853	     -7.61553666	      0.62641120	      0.01093294	      7.16667968	     -1.95364514	     -7.49999987	      5.63863539	      7.19353897	     -2.41970104	      0.00590701	     -0.01299125	     -0.00686717	     -8.50371831	      6.40200173	      1.70027324	     29.71996230	     95.26314309	     -0.00852886	      0.02575938	     -0.00631493	      0.31909271	     74.49421626	    -45.88480130	    108.55478136	     86.09953821
      4.71186440	     -5.45078014	     -0.89458923	     -0.12242280	      0.28796931	      0.93019429	     -0.04495851	      3.36412448	     -7.02014944	     -6.45792014	      0.91816169	      0.01602494	      1.28348053	     -0.10503420	     -7.49999987	      2.28781517	     -6.13145231	     -7.56031099	      0.64723757	      0.01129643	      7.13280548	     -1.94071745	     -7.49999987	      5.71170928	      7.07164839	     -2.32437371	      0.00407558	     -0.01332667	     -0.00692518	     -8.51622166	      6.30415307	      1.70035537	     29.68050572	     95.27344917	     -0.00824906	      0.02756761	     -0.00616673	      0.18648270	     74.52865616	    -46.03432303	    108.45741029	     86.09351488
      4.72881360	     -5.40691004	     -0.94337104	     -0.13944515	      0.28788917	      0.93049979	     -0.04487221	      3.24122580	     -6.91580076	     -6.33522482	      0.93359164	      0.01629425	      1.42992746	     -0.00791977	     -7.49999987	      2.17049806	     -6.23874854	     -7.56904928	      0.65295835	      0.01139627	      7.14783274	     -2.01089023	     -7.49999987	      5.69691593	      7.06674344	     -2.62829977	      0.00497576	     -0.01303969	     -0.00685926	     -8.94652251	      5.99779884	      1.67147340	     29.36805623	     96.86180553	     -0.00920626	      0.02611645	     -0.00619551	     -0.39582412	     74.99604355	    -46.88898077	    108.15244436	     85.94115674
      4.74576270	     -5.53188605	     -0.92411804	     -0.12084875	      0.28355842	      0.93021919	     -0.04939522	      3.37581278	     -6.94511326	     -6.24750849	      0.95787458	      0.01671807	      1.49353577	     -0.09798342	     -7.49999987	      2.31918034	     -6.21352470	     -7.51756774	      0.67020335	      0.01169726	      7.07581923	     -2.03585225	     -7.49999987	      5.90376301	      7.10688174	     -2.48177497	      0.00495890	     -0.01294741	     -0.00686811	     -8.66392428	      6.23202489	      1.84995398	     29.37991598	     95.56248257	     -0.00916061	      0.02637661	     -0.00626408	     -0.09525096	     74.90275361	    -46.88849978	    107.91459479	     85.06055947
      4.76271190	     -5.74848071	     -0.90247851	     -0.15873643	      0.28307298	      0.93002936	     -0.04951787	      3.94466168	     -7.03566582	     -6.09849741	      1.51778448	      0.02649034	      1.88074222	     -0.09203329	     -7.49999987	      2.83131569	     -6.18781176	     -7.43618272	      1.19615663	      0.02087687	      7.34696452	     -2.37531217	     -7.49999987	      6.17148781	      7.39753964	     -2.21294357	      0.00511445	     -0.00997986	     -0.00613253	     -8.07735780	      6.59560794	      2.49451506	     29.27666580	     91.66175320	     -0.00738909	      0.02544516	     -0.00562254	     -0.06030505	     74.70943945	    -46.65545014	    107.44975332	     82.90861316
      4.77966100	     -5.56707317	     -0.84251515	     -0.11297223	      0.28379024	      0.93356444	     -0.04969189	      3.45980493	     -7.07761717	     -6.00302860	      0.95556578	      0.01667777	      1.59382909	     -0.15244228	     -7.49999987	      2.39173430	     -6.07010636	     -7.36120738	      0.68143557	      0.01189329	      7.02340310	     -2.32950135	     -7.49999987	      6.01986237	      7.17026743	     -2.52864110	      0.00640472	     -0.01301631	     -0.00686101	     -8.27143085	      6.48470426	      1.41729604	     29.26283894	     96.63663805	     -0.00858730	      0.02734577	     -0.00633576	     -0.20125224	     74.29753221	    -46.72706922	    107.76647206	     86.12240937
      4.79661020	     -5.58493706	     -0.78972265	     -0.09214167	      0.28373908	      0.93345531	     -0.04959766	      3.49349153	     -7.16862075	     -5.97668057	      0.94088892	      0.01642161	      1.61272293	     -0.13186718	     -7.49999987	      2.42043351	     -5.96837091	     -7.32788040	      0.66592699	      0.01162262	      7.03799669	     -2.39489826	     -7.49999987	      6.08688455	      7.14040573	     -2.39024496	      0.00663524	     -0.01312102	     -0.00687267	     -7.87604525	      6.60708876	      1.99275982	     28.95539749	     92.93683230	     -0.00789840	      0.02743526	     -0.00640168	     -0.03571409	     74.10411440	    -46.35269646	    107.89199340	     84.07362622
      4.81355930	     -5.52514042	     -0.76310722	     -0.06608081	      0.28359895	      0.93322229	     -0.04969616	      3.41177646	     -7.21461548	     -5.96013465	      0.87552794	      0.01528085	      1.62810137	     -0.06983611	     -7.49999987	      2.37772795	     -5.90150890	     -7.32899588	      0.64375556	      0.01123565	      7.03450320	     -2.41073912	     -7.49999987	      5.87141526	      7.15934768	     -2.31977604	      0.00600636	     -0.01321593	     -0.00685539	     -7.44393798	      6.67181136	      0.92045861	     29.01883419	     96.13576587	     -0.00874269	      0.02784784	     -0.00637263	      0.18700232	     73.86624294	    -46.53267208	    107.89845341	     85.87922882
      4.83050850	     -5.54168281	     -0.72633408	     -0.09455690	      0.28351228	      0.93308170	     -0.04956045	      3.45982229	     -7.27043555	     -5.99379079	      0.84679174	      0.01477930	      1.56421673	     -0.13244766	     -7.49999987	      2.38859854	     -5.83088740	     -7.40248151	      0.61074751	      0.01065955	      7.12066162	     -2.32817066	     -7.49999987	      5.90978725	      7.13638057	     -2.38605920	      0.00642972	     -0.01334251	     -0.00693036	     -7.19898631	      6.66581821	      1.42367353	     28.94417812	     91.77953665	     -0.00805335	      0.02809128	     -0.00635256	     -0.09862847	     73.70407267	    -46.23760769	    108.22297895	     83.43427817
      4.84745760	     -5.81816854	     -0.71697402	     -0.15099057	      0.28302767	      0.93240411	     -0.04984015	      4.10942050	     -7.34406951	     -6.06473568	      1.42952665	      0.02494995	      1.90755865	      0.04013753	     -7.49999987	      2.95537234	     -5.82224695	     -7.50806079	      1.09574233	      0.01912431	      7.33001955	     -2.32351113	     -7.49999987	      6.07329178	      7.40150863	     -1.95653068	      0.00498706	     -0.01054269	     -0.00613669	     -6.20542712	      7.07761744	      2.31024723	     28.87367130	     90.30569945	     -0.00734058	      0.02740073	     -0.00556368	      0.37892411	     73.34096136	    -46.49767508	    108.13082792	     82.44282606
      4.86440680	     -5.46057777	     -0.66571260	     -0.12442152	      0.28339017	      0.93295595	     -0.04954740	      3.43001263	     -7.33955124	     -5.98474619	      0.85090816	      0.01485115	      1.59521214	     -0.23460401	     -7.49999987	      2.29487815	     -5.73357080	     -7.58377295	      0.56582980	      0.00987559	      7.22926828	     -2.08224247	     -7.49999987	      5.65999640	      7.16059658	     -2.46690751	      0.00660139	     -0.01331930	     -0.00689438	     -7.38352921	      6.68541105	      0.87071749	     29.24907508	     96.27622480	     -0.00862411	      0.02804636	     -0.00639227	     -0.33613578	     73.70993763	    -46.42992478	    108.19094927	     85.63124696
      4.88135590	     -5.42040828	     -0.65251678	     -0.11569419	      0.28325644	      0.93559525	     -0.04953256	      3.41756062	     -7.34474490	     -6.19056041	      0.83303069	      0.01453913	      1.57107494	     -0.18635615	     -7.49999987	      2.26089262	     -5.70527957	     -7.53684367	      0.55344622	      0.00965946	      7.15615546	     -2.13023183	     -7.49999987	      5.64972931	      7.13103886	     -2.21871266	      0.00698696	     -0.01342968	     -0.00687431	     -6.94780539	      6.84711773	      1.16632087	     28.92660576	     95.10423946	     -0.00792705	      0.02803102	     -0.00637291	     -0.12324510	     73.54912589	    -46.53624269	    107.99841705	     84.87505055
      4.89830510	     -5.39772244	     -0.59854874	     -0.08935981	      0.28711259	      0.93545628	     -0.05404282	      3.34369544	     -7.45173691	     -6.28333602	      0.83834062	      0.01463180	      1.47185206	     -0.17921553	     -7.49999987	      2.22148938	     -5.59384726	     -7.55344656	      0.56212503	      0.00981093	      7.12912091	     -2.10326087	     -7.49999987	      5.65011236	      7.22440359	     -2.17531616	      0.00646459	     -0.01340580	     -0.00685343	     -7.01595732	      7.16209501	      1.13991533	     28.85451117	     95.10920266	     -0.00866863	      0.02759725	     -0.00642065	     -0.21949022	     73.52306167	    -46.58798058	    108.05060105	     84.87905052
      4.91525420	     -5.42433340	     -0.62805009	     -0.09790477	      0.28320021	      0.93494403	     -0.04932458	      3.39091560	     -7.38918789	     -6.32330482	      0.85406561	      0.01490626	      1.51281713	     -0.17977590	     -7.49999987	      2.25407189	     -5.61118077	     -7.57627598	      0.58187784	      0.01015568	      7.21536488	     -2.14481943	     -7.49999987	      5.65308386	      7.23190272	     -2.09607846	      0.00672436	     -0.01357090	     -0.00678218	     -6.97161829	      7.06334109	      1.17035366	     28.87032554	     95.08214415	     -0.00826632	      0.02818127	     -0.00638039	     -0.25932510	     73.51820272	    -46.63652216	    108.02218882	     84.85370978
      4.93220340	     -5.22491909	     -0.61644432	     -0.05040320	      0.28707483	      0.93517331	     -0.05390369	      3.07116321	     -7.45867382	     -6.40951061	      0.80667144	      0.01407907	      1.40537301	      0.34537804	     -7.49999987	      1.98875300	     -5.55811725	     -7.64048131	      0.56656431	      0.00988841	      7.16381364	     -2.01128220	     -7.49999987	      5.57221795	      7.36287708	     -2.37888216	      0.00803163	     -0.01330746	     -0.00678171	     -6.62874354	      7.37028663	      1.69508617	     28.56909154	     93.44555065	     -0.00649543	      0.02806883	     -0.00634235	     -1.06015947	     73.20898290	    -46.84017618	    108.55854723	     84.05484985
